<?xml version="1.0" standalone="no"?>
<!DOCTYPE svg PUBLIC "-//W3C//DTD SVG 20010904//EN"
 "http://www.w3.org/TR/2001/REC-SVG-20010904/DTD/svg10.dtd">
<svg version="1.0" xmlns="http://www.w3.org/2000/svg"
 width="839.000000pt" height="839.000000pt" viewBox="0 0 839.000000 839.000000"
 preserveAspectRatio="xMidYMid meet">
<metadata>
Created by potrace 1.14, written by Peter Selinger 2001-2017
</metadata>
<g transform="translate(0.000000,839.000000) scale(0.100000,-0.100000)"
fill="#000000" stroke="none">
<path d="M3860 8171 c-128 -8 -307 -30 -412 -51 -27 -6 -69 -14 -95 -20 -27
-5 -68 -14 -93 -21 -25 -6 -71 -17 -103 -24 -53 -12 -117 -31 -192 -57 -16 -6
-48 -16 -70 -22 -22 -7 -57 -20 -79 -29 -21 -9 -44 -17 -50 -17 -6 -1 -29 -9
-51 -20 -22 -11 -43 -19 -47 -20 -10 0 -104 -42 -203 -91 -45 -21 -86 -39 -93
-39 -7 0 -12 -4 -12 -10 0 -5 -5 -10 -11 -10 -6 0 -63 -29 -127 -65 -63 -36
-118 -65 -122 -65 -4 0 -15 -9 -25 -20 -10 -11 -22 -20 -27 -20 -18 0 -331
-222 -368 -261 -8 -8 -49 -42 -90 -75 -106 -84 -329 -302 -422 -414 -44 -52
-89 -106 -102 -120 -28 -32 -153 -201 -193 -262 -18 -26 -40 -59 -51 -75 -57
-83 -106 -165 -138 -233 -9 -19 -19 -37 -23 -40 -8 -6 -104 -200 -146 -295
-38 -87 -77 -189 -125 -325 -32 -91 -96 -319 -109 -385 -5 -22 -15 -76 -24
-120 -71 -356 -90 -658 -66 -1050 13 -209 77 -609 118 -737 6 -18 20 -67 32
-108 28 -96 67 -219 79 -245 5 -11 21 -51 36 -90 14 -38 33 -86 41 -105 29
-67 186 -385 203 -410 10 -14 39 -62 65 -107 26 -46 54 -88 61 -94 8 -6 14
-17 14 -23 0 -7 8 -21 18 -32 9 -11 22 -27 27 -36 34 -54 103 -148 127 -173
15 -16 28 -33 28 -37 0 -17 191 -226 346 -379 160 -157 320 -295 431 -371 27
-19 56 -40 64 -47 25 -21 198 -131 207 -131 5 0 15 -7 22 -16 8 -8 27 -22 44
-30 17 -7 47 -24 66 -35 67 -41 389 -199 407 -199 4 0 19 -6 33 -13 14 -7 48
-21 75 -31 28 -10 59 -21 70 -26 68 -28 238 -82 315 -101 25 -6 70 -17 100
-24 30 -7 75 -18 100 -25 25 -6 61 -14 80 -16 19 -3 82 -14 140 -24 324 -58
841 -62 1210 -9 254 37 532 104 705 170 28 10 56 19 62 19 7 0 32 9 55 19 24
10 66 28 93 39 128 52 171 72 320 148 391 198 680 408 995 724 181 180 335
358 438 505 57 81 148 218 167 252 9 16 25 44 37 63 20 33 44 76 106 193 37
67 115 240 148 326 14 36 33 86 43 111 32 80 64 176 92 280 6 25 20 74 30 110
26 95 51 207 59 270 4 30 15 96 23 145 59 344 57 832 -3 1180 -11 61 -22 133
-26 160 -4 28 -13 67 -20 89 -8 21 -14 50 -14 63 0 14 -9 53 -19 87 -11 33
-29 95 -41 136 -43 145 -116 349 -131 364 -5 6 -9 16 -9 24 0 28 -203 444
-227 463 -7 6 -13 17 -13 23 0 6 -18 37 -40 69 -22 31 -40 61 -40 66 0 5 -6
16 -12 23 -7 7 -30 38 -50 68 -52 77 -150 214 -158 220 -3 3 -43 51 -89 108
-211 262 -612 614 -920 807 -44 28 -143 85 -146 85 -2 0 -20 11 -39 23 -19 13
-92 52 -163 87 -132 64 -156 75 -233 108 -107 45 -148 61 -200 80 -30 10 -71
25 -90 32 -140 50 -513 140 -670 161 -47 6 -110 15 -140 19 -82 12 -615 19
-770 11z m553 -411 c27 -30 27 -32 27 -168 0 -180 -5 -207 -47 -248 -31 -32
-38 -34 -100 -34 l-66 0 6 173 c4 94 10 205 14 246 l6 74 66 -6 c57 -6 70 -11
94 -37z m-633 -52 c11 -40 29 -102 40 -138 66 -225 74 -266 54 -274 -38 -15
-51 -6 -64 40 -12 42 -15 45 -44 42 -29 -3 -31 -5 -34 -50 -2 -29 -8 -48 -15
-48 -7 0 -22 -3 -34 -6 l-23 -6 0 198 c0 253 5 302 34 307 62 12 63 11 86 -65z
m1182 15 c39 -9 72 -22 74 -28 3 -6 0 -24 -6 -39 -8 -21 -15 -26 -28 -21 -9 3
-29 9 -44 12 -24 5 -27 2 -32 -28 -13 -77 -12 -83 14 -96 14 -7 25 -17 24 -23
-1 -5 -2 -22 -2 -36 -2 -25 -5 -26 -37 -21 -33 5 -35 4 -40 -31 -3 -20 -8 -49
-10 -64 -5 -29 -2 -30 60 -40 16 -3 19 -10 17 -33 -5 -44 -15 -49 -66 -36 -25
6 -57 11 -71 11 -14 0 -28 7 -31 15 -6 13 23 170 66 360 5 22 12 57 15 78 3
20 11 37 17 37 5 0 42 -8 80 -17z m-1798 -92 c25 -10 76 -85 76 -113 0 -8 8
-37 19 -64 10 -27 26 -82 35 -123 16 -70 16 -76 -2 -110 -15 -27 -30 -40 -68
-53 -27 -10 -56 -18 -65 -18 -16 0 -41 52 -55 115 -3 17 -14 55 -24 85 -10 30
-28 89 -40 130 -13 41 -27 86 -32 99 -11 30 -3 38 47 50 54 12 79 13 109 2z
m-524 -244 c0 -5 24 -59 54 -120 93 -195 116 -245 116 -254 0 -14 -49 -35 -62
-27 -6 4 -42 72 -80 153 -38 80 -83 173 -99 207 -16 34 -29 65 -29 71 0 5 12
14 28 20 24 9 30 7 49 -16 13 -14 23 -30 23 -34z m3187 42 c21 -11 49 -32 62
-46 20 -23 22 -33 17 -71 -8 -57 -108 -263 -151 -307 -40 -43 -87 -46 -155
-13 -25 13 -46 24 -48 25 -10 4 212 433 224 433 7 0 30 -9 51 -21z m-3621
-266 c40 -33 43 -55 9 -77 -24 -16 -26 -15 -47 4 -41 38 -65 17 -30 -27 16
-20 114 -73 136 -73 6 0 32 -15 58 -32 83 -57 101 -131 47 -193 -25 -28 -38
-35 -68 -35 -30 0 -44 8 -76 41 l-40 40 29 25 29 25 28 -27 c44 -42 83 -13 41
32 -18 18 -45 34 -157 85 -74 34 -110 80 -110 142 0 42 4 52 30 73 39 31 78
30 121 -3z m4208 -85 c23 -25 27 -37 23 -65 -7 -40 -140 -235 -206 -301 -40
-40 -47 -44 -80 -38 -23 3 -46 17 -65 37 -47 53 -39 72 134 310 22 31 48 63
58 71 40 36 95 31 136 -14z m-4643 -324 c22 -21 45 -56 51 -77 12 -40 30 -57
155 -148 42 -30 42 -31 27 -55 -9 -13 -24 -24 -33 -24 -9 0 -49 25 -89 56 -41
31 -76 53 -79 50 -3 -3 22 -35 56 -71 33 -36 61 -72 61 -79 0 -16 -36 -49 -49
-45 -5 2 -51 49 -102 104 -51 55 -124 133 -161 174 l-69 74 33 34 c43 45 63
54 116 49 35 -3 52 -12 83 -42z m1329 -169 c0 -78 -5 -102 -33 -162 -25 -54
23 -35 103 42 86 82 170 117 310 130 81 7 100 -2 80 -40 -53 -99 -156 -160
-290 -171 -88 -7 -155 -29 -179 -58 -12 -14 -11 -16 9 -16 70 0 240 -73 240
-103 0 -13 -86 -48 -138 -55 -106 -16 -252 -6 -304 20 -44 21 -64 23 -75 4 -4
-7 -18 -18 -30 -25 -41 -21 -24 -29 75 -33 73 -4 108 -11 140 -27 23 -12 42
-26 42 -31 0 -15 -81 -64 -138 -84 -57 -20 -275 -30 -318 -15 -16 6 -28 1 -48
-20 -14 -15 -26 -30 -26 -34 0 -4 30 -7 67 -7 75 0 179 -25 206 -50 16 -16 16
-17 0 -32 -29 -26 -90 -57 -153 -78 -46 -16 -86 -20 -179 -20 l-120 0 -21 -31
c-12 -16 -19 -33 -16 -37 4 -3 60 -7 124 -8 113 -2 179 -16 220 -47 37 -29
-114 -112 -228 -125 -63 -8 -182 -6 -216 2 -24 6 -31 -2 -68 -83 -19 -41 -15
-47 21 -33 55 20 198 34 239 23 21 -5 51 -13 67 -16 39 -8 34 -28 -20 -74 -81
-70 -181 -106 -357 -128 -58 -8 -60 -9 -68 -43 -5 -19 -13 -43 -19 -53 -6 -11
-9 -21 -6 -23 2 -2 30 5 63 17 32 12 70 23 84 25 128 22 200 16 200 -16 0 -18
-75 -101 -116 -127 -31 -20 -134 -74 -134 -69 0 2 -32 -6 -72 -18 -79 -25 -72
-15 -92 -128 -7 -41 4 -49 33 -24 65 55 259 110 262 74 3 -30 -4 -54 -20 -73
-9 -11 -28 -36 -40 -55 -25 -38 -97 -101 -146 -128 -16 -9 -32 -20 -35 -23 -3
-3 -22 -12 -42 -20 l-38 -13 0 -67 c0 -37 4 -70 10 -74 5 -3 36 21 69 53 94
93 181 130 181 77 0 -105 -68 -241 -169 -340 -45 -44 -51 -54 -51 -91 0 -46 8
-74 20 -74 5 0 22 22 39 50 17 27 44 64 61 81 16 18 30 35 30 39 0 4 8 10 18
14 9 3 25 11 35 18 30 22 39 -7 33 -107 -5 -91 -26 -169 -59 -215 -9 -13 -17
-30 -17 -36 0 -6 -16 -32 -36 -58 l-36 -47 22 -60 c12 -32 25 -59 29 -59 3 0
17 24 31 53 39 82 87 151 119 170 l29 17 13 -33 c20 -46 17 -188 -5 -262 -18
-58 -24 -73 -59 -143 -15 -31 -15 -34 4 -67 25 -42 39 -45 39 -7 1 65 80 232
110 232 17 0 48 -74 60 -141 14 -76 6 -220 -16 -286 -15 -43 -15 -45 11 -79
14 -19 30 -34 36 -34 5 0 9 19 10 43 0 59 31 172 56 205 18 24 22 25 37 13 10
-8 27 -33 39 -55 39 -74 51 -135 52 -269 2 -103 5 -132 18 -148 31 -35 39 -23
32 49 -8 72 6 166 29 197 18 25 43 7 88 -64 60 -92 87 -181 88 -283 0 -62 2
-68 31 -92 52 -44 63 -37 55 42 -6 58 -3 87 18 182 6 31 35 20 72 -27 22 -26
42 -50 45 -53 17 -13 61 -143 71 -208 8 -58 15 -76 33 -88 27 -18 85 -35 95
-29 4 3 -1 35 -11 72 -10 38 -19 80 -19 95 0 30 19 78 31 78 4 0 29 -18 56
-39 71 -55 125 -134 167 -244 15 -36 30 -47 99 -67 l27 -9 -6 97 c-6 83 -4 99
10 111 14 12 21 9 53 -15 21 -16 49 -42 63 -59 14 -16 32 -37 41 -46 13 -13
62 -104 64 -119 4 -30 21 -51 43 -56 15 -3 43 -12 62 -19 19 -8 46 -17 60 -20
14 -4 45 -16 69 -26 43 -20 44 -20 95 0 28 11 87 32 131 46 l81 27 34 75 c19
42 47 89 63 106 15 16 27 32 27 36 0 10 95 81 109 81 21 0 28 -45 19 -129 -5
-46 -8 -85 -6 -86 2 -2 28 5 58 15 50 17 56 22 71 62 8 24 24 59 34 78 23 44
93 140 103 140 4 0 22 14 41 30 47 42 61 39 62 -12 3 -83 -3 -143 -17 -170
-16 -32 -6 -41 33 -32 65 16 100 66 95 137 -1 23 44 142 70 184 28 46 80 103
93 103 7 0 20 -18 30 -39 14 -32 17 -59 13 -135 -2 -56 0 -96 5 -96 5 0 24 9
42 20 31 19 33 23 34 86 0 36 8 91 18 122 9 31 18 62 19 67 14 64 110 195 133
181 24 -15 33 -62 33 -168 1 -114 7 -128 43 -88 15 17 17 31 11 93 -7 74 7
214 24 255 22 50 35 78 43 87 4 6 14 19 21 29 10 15 17 17 31 8 24 -13 65
-149 65 -214 0 -26 4 -48 9 -48 18 0 72 72 63 83 -22 28 -37 119 -37 217 0 87
4 116 24 168 25 65 46 86 62 61 4 -8 16 -25 26 -38 10 -13 18 -27 19 -30 0 -3
7 -22 16 -42 9 -20 19 -59 23 -87 4 -29 11 -52 15 -52 12 0 50 55 50 72 0 7
-9 24 -20 38 -11 14 -20 32 -20 40 0 8 -7 28 -15 44 -25 48 -45 195 -34 252
18 89 19 94 30 94 17 0 88 -79 107 -119 10 -20 23 -45 29 -56 6 -11 17 -33 24
-50 10 -25 13 -27 17 -11 2 10 13 34 23 53 24 42 24 71 1 92 -32 28 -94 153
-113 226 -22 83 -24 174 -5 200 13 17 15 17 52 -11 21 -16 45 -37 52 -47 8
-10 22 -25 31 -35 10 -9 28 -38 40 -64 13 -27 26 -48 31 -48 4 0 13 26 18 58
l10 57 -52 55 c-59 62 -116 134 -116 146 0 5 -11 30 -24 57 -16 31 -26 69 -28
110 -3 60 -2 62 21 59 35 -5 121 -64 169 -117 24 -25 45 -45 47 -43 8 8 15
124 8 133 -5 6 -17 15 -28 21 -102 54 -115 64 -185 134 -56 56 -116 153 -105
170 11 18 62 13 155 -15 19 -6 51 -23 89 -47 25 -15 49 -28 53 -28 11 0 10 36
-4 96 -13 56 -7 53 -138 83 -81 19 -237 129 -269 190 -10 19 -8 22 16 32 15 6
57 8 93 6 85 -7 95 -9 168 -36 35 -13 65 -21 68 -19 6 7 -25 89 -40 105 -6 6
-45 16 -86 21 -100 14 -156 28 -210 54 -54 27 -128 81 -147 108 -13 18 -12 21
9 29 74 30 115 33 214 17 55 -9 109 -19 122 -22 22 -6 22 -5 -11 57 -32 58
-38 64 -64 61 -55 -6 -169 -6 -213 0 -58 7 -155 42 -176 62 -8 9 -24 21 -35
26 -32 17 -22 35 34 60 46 22 66 24 175 24 131 -1 138 3 103 48 -18 22 -26 24
-127 25 -119 2 -181 10 -190 24 -3 5 -16 9 -29 9 -26 0 -115 52 -127 74 -6 10
1 21 18 35 15 12 29 21 33 22 3 0 17 3 31 5 14 3 64 8 113 11 48 3 87 8 87 12
0 4 -11 17 -24 28 -22 19 -34 21 -167 18 -125 -2 -151 0 -204 19 -74 27 -145
73 -139 91 11 27 120 58 199 56 41 -1 75 2 75 6 0 10 -66 63 -78 63 -5 0 -29
-9 -53 -19 -60 -26 -190 -36 -281 -21 -79 13 -148 38 -148 54 0 15 31 46 47
46 7 0 13 4 13 9 0 13 85 40 147 48 29 3 53 9 53 13 0 3 -22 17 -50 29 -45 20
-74 26 -215 45 -59 7 -115 36 -162 83 -55 55 -80 102 -61 115 15 10 153 1 178
-12 9 -5 27 -10 41 -12 43 -6 116 -48 163 -94 25 -24 46 -48 46 -53 0 -5 8
-11 18 -14 9 -2 25 -8 34 -12 16 -6 17 -3 12 26 -4 19 -12 40 -18 48 -6 8 -11
54 -11 105 0 87 1 91 22 94 41 6 194 -161 214 -233 1 -5 11 -37 21 -70 10 -33
18 -73 18 -88 0 -18 10 -37 28 -52 47 -42 50 -35 45 83 -5 108 3 172 24 179 6
2 31 -16 55 -41 37 -39 58 -73 109 -178 13 -27 41 -218 35 -235 -6 -15 19 -53
34 -53 4 0 10 45 13 100 4 73 12 110 28 142 12 24 23 44 24 46 5 5 45 -32 45
-41 0 -5 9 -21 20 -36 46 -66 61 -132 63 -287 1 -99 6 -149 13 -151 7 -2 14
15 19 44 4 26 10 53 15 58 4 6 10 24 14 40 12 51 55 115 76 115 11 0 20 -5 20
-10 0 -6 9 -29 20 -53 31 -67 41 -188 25 -293 -8 -49 -19 -103 -26 -120 -11
-27 -10 -34 7 -57 26 -35 32 -34 39 11 11 69 98 222 126 222 5 0 12 -13 16
-30 3 -16 9 -30 13 -30 18 0 30 -207 16 -265 -13 -52 -37 -119 -57 -156 -23
-44 -24 -59 -5 -84 13 -18 15 -15 40 36 25 53 128 179 146 179 19 0 32 -77 27
-160 -5 -91 -23 -171 -47 -211 -8 -13 -26 -45 -40 -71 -13 -27 -28 -48 -32
-48 -14 0 -8 -76 8 -96 10 -12 17 -15 20 -7 24 55 172 192 194 178 15 -9 12
-122 -5 -188 -8 -31 -28 -83 -44 -115 -29 -57 -37 -68 -112 -153 -32 -36 -36
-47 -37 -95 0 -30 2 -54 5 -54 3 0 28 21 56 46 28 25 65 52 81 61 17 9 34 20
37 25 3 5 22 11 42 15 37 6 37 5 37 -28 0 -53 -53 -189 -91 -233 -39 -45 -113
-118 -152 -150 -35 -29 -46 -45 -51 -78 -4 -22 -5 -43 -2 -45 2 -2 26 10 54
26 27 17 53 31 59 31 5 0 27 9 49 19 43 21 114 26 114 8 0 -7 -11 -35 -24 -63
-58 -124 -153 -213 -300 -281 -34 -16 -46 -27 -42 -38 3 -8 2 -15 -3 -15 -10
0 -21 -47 -13 -55 3 -3 10 -1 16 3 22 17 172 61 203 60 56 -2 52 -38 -13 -123
-41 -55 -50 -63 -109 -102 -60 -40 -98 -58 -165 -79 -43 -13 -68 -28 -82 -47
-25 -34 -17 -45 19 -27 30 14 202 26 227 17 11 -4 13 -12 8 -26 -12 -33 -132
-151 -153 -151 -5 0 -9 -4 -9 -9 0 -5 -13 -12 -30 -16 -16 -3 -47 -15 -69 -26
-23 -11 -67 -22 -98 -25 -60 -7 -86 -16 -115 -42 -30 -26 -20 -31 60 -28 77 3
177 -15 197 -35 21 -22 -104 -113 -197 -143 -76 -25 -101 -28 -195 -27 -88 2
-93 1 -124 -27 l-32 -29 89 -16 c49 -9 113 -28 143 -42 l53 -26 -22 -24 c-13
-14 -39 -30 -59 -36 -20 -6 -41 -16 -47 -20 -18 -14 -152 -28 -226 -23 -37 2
-89 11 -115 20 -33 11 -48 13 -51 5 -2 -6 -9 -11 -17 -11 -7 0 -18 -6 -24 -14
-10 -11 -2 -16 41 -26 90 -21 198 -81 198 -110 0 -5 -9 -14 -20 -20 -11 -6
-20 -8 -20 -4 0 3 -6 2 -12 -3 -29 -23 -95 -35 -189 -34 -81 1 -114 7 -184 31
-80 27 -88 28 -120 14 -42 -17 -44 -29 -8 -39 15 -3 39 -15 54 -26 15 -10 31
-19 36 -19 4 0 21 -14 37 -30 31 -32 28 -46 -10 -55 -186 -42 -176 -41 -281
-16 -54 14 -110 30 -125 38 -36 17 -73 17 -88 -2 -7 -9 -11 -17 -9 -19 2 -1
34 -22 71 -46 37 -24 70 -50 72 -57 9 -21 -52 -45 -135 -52 -79 -7 -152 3
-243 32 -43 14 -53 14 -83 2 -50 -21 -58 -15 147 -115 185 -90 309 -178 356
-252 20 -31 24 -51 24 -113 0 -53 -4 -77 -13 -81 -7 -2 -35 16 -62 41 -27 25
-55 45 -61 45 -6 0 -17 6 -23 14 -12 15 -205 146 -214 146 -3 0 -41 22 -84 48
-43 27 -95 56 -115 65 -20 10 -40 21 -42 26 -3 5 -18 12 -33 16 -14 3 -38 15
-51 26 -44 34 -47 33 -292 -97 -19 -11 -36 -22 -38 -26 -2 -5 -8 -8 -14 -8 -9
0 -91 -49 -198 -117 -52 -34 -134 -93 -196 -141 -30 -23 -59 -40 -64 -37 -17
10 -12 143 6 178 17 33 99 117 113 117 5 0 15 7 22 16 7 9 22 20 34 25 11 5
32 17 47 27 66 43 166 95 276 143 28 13 52 29 52 35 0 6 -16 16 -36 22 -30 9
-47 7 -111 -15 -67 -22 -88 -25 -182 -21 -103 4 -161 20 -161 42 0 14 74 76
115 96 17 8 32 16 34 17 3 2 -4 10 -15 18 -21 16 -75 20 -90 6 -5 -5 -43 -19
-84 -32 -95 -30 -200 -32 -285 -5 -66 22 -80 33 -62 54 18 22 109 78 140 85
60 16 9 52 -62 44 -25 -3 -68 -15 -95 -26 -72 -32 -212 -36 -285 -10 -31 11
-64 22 -75 24 -10 2 -25 10 -33 16 -11 10 -12 15 -1 25 32 31 143 84 188 90
57 8 65 26 22 48 -25 13 -34 13 -69 1 -60 -21 -254 -21 -323 0 -64 20 -102 38
-124 61 -15 15 -14 17 8 35 13 10 28 19 34 19 5 0 23 7 41 16 17 9 55 18 83
21 29 3 64 9 78 15 l25 10 -30 24 c-26 20 -37 23 -77 18 -55 -8 -199 11 -245
32 -17 8 -38 14 -47 14 -9 0 -16 3 -16 8 0 4 -13 13 -29 20 -32 14 -111 80
-111 92 0 22 89 42 183 43 53 0 97 2 97 4 0 2 -4 12 -10 22 -12 24 -52 39
-120 45 -77 8 -197 57 -250 103 -74 65 -120 121 -113 139 7 20 159 18 221 -4
24 -8 45 -12 48 -9 13 12 -22 59 -48 64 -16 3 -31 10 -34 14 -3 5 -14 9 -25 9
-24 0 -83 30 -164 83 -45 28 -75 59 -108 109 -55 81 -60 108 -19 108 31 -1
108 -16 137 -29 44 -18 97 -33 102 -27 3 3 -1 22 -9 42 -13 31 -28 44 -95 79
-111 58 -202 147 -248 240 -19 40 -35 78 -35 84 0 29 164 -14 211 -55 8 -8 21
-14 27 -14 7 0 12 -4 12 -10 0 -5 7 -10 15 -10 11 0 14 10 11 39 -4 40 -21 81
-34 81 -18 0 -109 82 -161 144 -40 49 -88 158 -95 219 -7 53 -6 57 12 57 34 0
114 -46 172 -99 30 -28 58 -51 63 -51 4 0 7 25 7 55 0 44 -4 58 -24 77 -37 35
-123 154 -131 180 -4 13 -16 42 -26 65 -19 43 -32 214 -16 229 15 16 146 -98
179 -157 12 -21 25 -39 29 -39 4 0 12 21 18 48 9 41 8 50 -10 75 -48 66 -97
184 -109 260 -15 100 -2 227 23 227 30 0 157 -174 157 -215 0 -24 20 -17 30
10 10 27 8 38 -20 100 -54 122 -68 274 -35 377 26 81 36 87 72 41 34 -43 83
-139 83 -162 1 -9 7 -27 14 -40 l13 -24 17 24 c17 25 21 69 8 85 -30 34 -45
270 -21 331 34 84 54 123 64 123 11 0 55 -53 55 -67 0 -4 7 -21 15 -36 8 -15
17 -43 20 -62 3 -19 8 -51 11 -71 4 -28 8 -34 17 -25 8 8 12 56 12 144 0 100
4 146 19 192 19 64 19 64 67 138 31 48 32 48 51 30 22 -23 58 -165 58 -230 0
-45 0 -46 20 -28 17 15 20 31 20 94 0 78 36 219 64 251 8 8 15 20 17 27 8 26
95 122 108 120 23 -3 43 -130 31 -196 -6 -30 -10 -66 -10 -79 0 -24 1 -24 26
-7 52 34 64 49 64 83 0 98 63 233 146 315 46 46 102 80 116 71 4 -3 8 -43 8
-89z m3974 -118 c32 -42 32 -44 -1 -76 -37 -35 -116 -131 -109 -131 10 0 131
64 137 73 3 4 21 10 40 13 30 5 36 2 51 -24 17 -28 17 -31 0 -50 -15 -17 -172
-145 -313 -254 l-48 -38 -20 29 -21 29 100 81 c55 45 100 84 100 86 0 2 -29
-14 -65 -36 -35 -21 -69 -39 -75 -39 -5 0 -10 -4 -10 -8 0 -5 -18 -17 -40 -27
-30 -14 -44 -15 -52 -7 -8 8 7 32 58 89 106 119 106 123 2 39 l-97 -77 -20 20
c-12 12 -21 25 -21 30 0 5 21 26 48 46 26 21 52 43 57 50 6 6 46 38 91 72 44
33 100 79 124 102 24 23 47 41 52 41 4 0 18 -15 32 -33z m-5754 -111 c0 -2
-11 -16 -25 -32 -14 -16 -25 -33 -25 -39 0 -12 73 -65 89 -65 5 0 16 9 25 21
l14 21 31 -23 c31 -23 39 -43 21 -54 -21 -13 -8 -41 35 -72 l43 -32 29 35 28
35 28 -21 c15 -12 27 -26 27 -32 0 -8 -35 -55 -91 -122 -4 -4 -39 18 -79 49
-39 32 -93 74 -120 94 -120 89 -190 143 -190 148 0 12 74 114 88 122 11 6 25
3 44 -11 15 -10 28 -21 28 -22z m-345 -463 c22 -15 72 -52 112 -82 39 -31 102
-78 138 -106 93 -70 98 -77 85 -110 -9 -24 -15 -27 -43 -22 -17 2 -70 19 -117
37 -47 17 -99 36 -117 41 -18 5 -45 16 -60 24 -15 8 -34 15 -41 15 -7 0 -35 9
-62 21 l-49 21 15 29 c16 33 32 35 77 15 69 -31 169 -68 173 -63 3 2 -20 21
-51 41 -30 21 -55 40 -55 44 0 4 -18 18 -40 32 -42 25 -47 38 -30 71 14 25 18
24 65 -8z m6491 10 c7 -10 13 -25 14 -33 0 -13 -39 -43 -80 -61 -8 -4 -57 -32
-109 -63 -51 -31 -96 -56 -98 -56 -3 0 -32 -16 -65 -35 l-60 -35 -18 22 c-11
13 -19 28 -20 35 0 10 69 54 176 111 14 7 71 40 127 72 56 33 106 60 111 60 5
0 15 -8 22 -17z m223 -459 c15 -34 7 -43 -93 -109 -71 -47 -89 -65 -66 -65 5
0 51 16 101 36 52 21 94 33 99 28 5 -5 12 -21 15 -35 6 -25 3 -28 -52 -47
-126 -44 -178 -65 -187 -73 -6 -5 -19 -9 -31 -9 -12 0 -25 -4 -30 -9 -6 -4
-40 -20 -78 -34 l-67 -25 -15 28 c-8 16 -15 31 -15 34 0 3 24 21 53 41 86 60
161 115 155 115 -3 0 -36 -12 -74 -26 -160 -60 -171 -61 -176 -15 -3 25 18 36
162 90 30 11 100 38 155 60 55 22 107 40 116 40 9 1 21 -11 28 -25z m-6951
-114 c22 -11 47 -20 54 -20 12 0 58 -16 168 -60 25 -10 65 -25 90 -34 68 -24
72 -29 61 -59 -13 -33 -42 -35 -104 -9 -23 10 -58 24 -77 31 -19 7 -86 31
-149 53 -148 52 -151 53 -137 90 13 34 36 36 94 8z m2520 -449 c3 -150 -2
-167 -39 -155 -11 3 -18 -3 -22 -18 -3 -13 -5 -153 -4 -313 l2 -290 88 -3 87
-3 0 36 0 36 138 -3 137 -3 3 -182 2 -183 -435 0 -436 0 3 148 3 147 33 3 32
3 0 309 c0 331 2 320 -51 320 -18 0 -19 9 -19 143 0 79 3 147 7 151 4 3 110 5
237 4 l231 -3 3 -144z m1270 42 l103 -107 -3 -140 -3 -141 -172 -3 -173 -2 0
81 c0 109 -9 119 -105 119 -49 0 -76 -4 -84 -14 -8 -9 -11 -100 -9 -312 l3
-299 95 0 95 0 3 83 3 82 174 0 175 0 0 -133 0 -134 -96 -101 -96 -102 -258 0
-258 0 -96 101 -96 101 0 409 0 410 82 87 c44 48 90 95 101 105 17 15 45 17
266 17 l246 0 103 -107z m882 94 c8 -7 54 -54 103 -104 l87 -90 0 -147 0 -146
-170 0 -170 0 0 78 c0 104 -9 115 -94 120 -50 3 -72 0 -91 -12 l-25 -17 2
-297 3 -297 88 -3 c57 -2 94 1 103 9 10 8 14 34 14 85 l0 74 170 0 170 0 0
-136 0 -137 -37 -39 c-21 -22 -65 -67 -98 -99 l-59 -59 -211 -2 c-253 -2 -284
0 -310 14 -11 6 -57 51 -102 99 l-83 87 0 407 0 407 102 109 102 109 246 0
c181 -1 249 -4 260 -13z m-4781 -163 c33 -8 98 -22 143 -30 236 -41 218 -36
218 -64 0 -45 -10 -49 -128 -56 -146 -9 -149 -22 -7 -39 80 -10 105 -23 105
-56 0 -15 -4 -30 -9 -34 -6 -3 -54 4 -108 16 -170 36 -277 58 -320 64 -49 8
-56 15 -47 49 8 32 14 34 148 42 64 4 113 11 110 15 -3 5 -20 9 -37 9 -34 0
-184 34 -194 43 -3 3 -3 18 1 32 8 30 35 33 125 9z m7251 -39 c0 -30 -4 -35
-27 -40 -169 -33 -172 -35 -154 -63 7 -11 24 -11 101 3 102 17 113 14 108 -34
-3 -26 -16 -30 -183 -61 -33 -6 -101 -20 -152 -31 -121 -27 -147 -24 -151 18
l-3 31 73 16 c40 8 84 17 98 18 19 2 25 9 25 28 0 29 -7 29 -117 3 -37 -8 -73
-13 -81 -10 -8 3 -17 19 -19 36 -4 29 -2 32 36 42 23 6 66 15 98 19 31 5 87
15 125 23 123 28 208 43 216 40 4 -3 7 -20 7 -38z m-7003 -611 c59 -44 52
-133 -13 -160 -36 -15 -196 -19 -352 -8 l-92 7 0 33 0 34 210 0 c173 0 210 2
210 14 0 21 -23 26 -119 26 -48 0 -136 3 -194 7 l-107 6 0 34 0 34 214 -3
c200 -3 217 -4 243 -24z m7050 0 c32 -25 34 -28 31 -82 -3 -52 -6 -58 -33 -71
-20 -10 -86 -18 -198 -23 -148 -7 -172 -6 -204 8 -69 34 -79 113 -19 158 33
25 92 33 260 35 125 1 130 0 163 -25z m-6687 -809 c7 -8 14 -59 17 -119 6
-104 6 -104 -21 -121 -24 -16 -28 -16 -51 -1 -24 16 -25 20 -25 124 0 71 4
112 12 120 17 17 53 15 68 -3z m5932 -2 c26 -23 22 -38 -30 -128 -45 -76 -49
-80 -82 -80 -31 0 -35 3 -38 29 -2 19 8 53 29 93 53 102 81 122 121 86z m336
-175 c7 -7 12 -24 12 -39 0 -35 -38 -49 -134 -49 -80 0 -116 17 -116 54 0 39
18 46 125 46 65 0 105 -4 113 -12z m-6578 -28 c19 -11 52 -27 73 -36 20 -9 37
-20 37 -25 0 -4 12 -12 28 -18 32 -13 85 -43 107 -61 31 -26 12 -80 -29 -80
-20 0 -270 133 -293 156 -27 26 -7 83 27 83 8 0 31 -9 50 -19z m643 6 c28 -21
21 -58 -16 -82 -17 -12 -42 -25 -54 -29 -13 -3 -23 -10 -23 -15 0 -5 -9 -12
-21 -15 -11 -4 -51 -24 -88 -46 -77 -44 -104 -48 -125 -18 -19 27 -3 67 31 75
13 4 23 10 23 14 0 4 15 13 33 20 17 8 39 19 47 25 23 19 152 85 164 85 6 0
19 -7 29 -14z m5292 -42 c11 -21 26 -44 32 -52 17 -18 34 -87 27 -106 -9 -23
-52 -32 -69 -15 -15 16 -95 168 -95 181 0 4 9 17 20 28 27 27 60 14 85 -36z
m575 -197 c17 -13 84 -129 94 -164 5 -15 0 -27 -15 -42 -13 -12 -27 -21 -31
-21 -29 0 -118 148 -118 194 0 38 40 57 70 33z m-6196 -13 c13 -13 16 -45 16
-193 0 -163 -2 -179 -19 -195 -21 -19 -56 -15 -64 8 -3 8 -9 92 -13 188 -6
156 -5 176 10 191 22 21 50 22 70 1z m-174 -49 c25 -30 3 -59 -80 -108 -90
-52 -109 -56 -134 -28 -24 27 -13 55 32 82 120 72 157 84 182 54z m392 -8
c125 -68 145 -91 112 -128 -25 -28 -50 -23 -139 29 -82 49 -101 75 -75 108 18
20 53 17 102 -9z m5543 -91 c13 -19 14 -29 5 -45 -10 -19 -20 -21 -121 -21
-107 0 -110 1 -121 25 -9 21 -8 28 7 45 16 17 31 20 116 20 93 0 99 -1 114
-24z m261 -44 c26 -16 24 -49 -4 -93 -16 -24 -40 -63 -55 -86 -29 -46 -54 -54
-81 -27 -26 25 -18 55 35 137 49 76 72 91 105 69z m-4490 -882 c8 0 14 -10 14
-24 0 -21 -6 -25 -32 -28 -31 -3 -33 -5 -33 -43 0 -34 3 -40 23 -43 17 -3 22
-10 22 -32 0 -22 -5 -29 -22 -32 -19 -2 -24 -10 -26 -45 l-3 -43 35 0 c33 0
36 -2 36 -30 l0 -31 -62 3 -63 3 -3 172 c-2 171 -2 172 20 176 13 3 36 3 52 1
16 -2 35 -4 42 -4z m140 4 c12 -3 26 -15 32 -27 l11 -22 0 23 c1 21 5 22 71
22 39 0 73 0 78 0 4 0 7 -10 7 -22 0 -16 -7 -24 -22 -26 -23 -3 -23 -5 -23
-153 l0 -150 -27 3 -28 3 -5 145 c-5 138 -6 145 -26 148 -15 2 -23 -3 -27 -17
-7 -28 -47 -28 -54 -1 -3 11 -12 20 -20 20 -21 0 -10 -53 17 -87 11 -14 20
-30 20 -35 0 -6 9 -21 20 -35 24 -31 26 -73 5 -113 -14 -26 -21 -30 -60 -30
-51 0 -75 24 -75 77 0 28 4 33 24 33 19 0 25 -6 28 -27 4 -35 32 -37 36 -4 2
14 -8 40 -28 67 -45 63 -62 109 -54 150 9 51 46 73 100 58z m2321 -9 c33 -23
37 -70 12 -150 -12 -38 -28 -79 -35 -90 -22 -31 -17 -43 19 -47 27 -2 33 -8
35 -30 l3 -28 -75 0 c-74 0 -76 1 -76 24 0 14 13 49 29 78 35 65 66 162 58
183 -10 24 -25 17 -29 -12 -2 -22 -8 -28 -28 -28 -23 0 -25 4 -24 39 2 65 60
96 111 61z m183 -5 c18 -18 20 -33 20 -164 0 -138 -1 -146 -22 -160 -29 -21
-77 -20 -100 1 -16 14 -18 33 -18 164 0 141 1 149 22 163 31 22 74 20 98 -4z
m165 -5 c24 -23 25 -29 25 -152 0 -145 -10 -176 -54 -181 -80 -10 -96 20 -96
180 0 109 12 159 42 171 30 12 60 5 83 -18z m151 19 c24 -6 44 -42 44 -79 0
-21 -5 -25 -30 -25 -25 0 -30 4 -30 24 0 34 -18 42 -26 12 -8 -32 -2 -61 14
-62 6 -1 19 -2 27 -3 23 -2 45 -55 45 -111 0 -28 -7 -64 -15 -80 -13 -25 -22
-30 -54 -30 -68 0 -74 17 -72 223 1 83 4 100 21 117 21 21 39 24 76 14z
m-2556 -324 c0 -25 -4 -30 -25 -30 -21 0 -25 5 -25 30 0 25 4 30 25 30 21 0
25 -5 25 -30z m1325 -329 l90 -6 -74 -7 c-40 -4 -87 -5 -105 -2 -24 3 -26 2
-11 -5 17 -7 13 -10 -25 -20 -136 -35 -206 -98 -276 -248 -25 -54 -57 -123
-72 -153 -30 -61 -106 -150 -131 -151 -9 0 -11 -3 -4 -5 21 -9 72 25 105 69
34 46 148 280 148 304 0 17 85 100 125 123 69 39 156 62 251 67 76 4 104 1
165 -17 41 -13 89 -32 107 -43 18 -10 42 -17 52 -14 11 3 20 2 20 -2 0 -16
-268 -268 -325 -306 -33 -22 -66 -46 -73 -53 -8 -7 -28 -19 -45 -27 -18 -8
-56 -28 -85 -44 -79 -43 -228 -88 -340 -102 -95 -12 -101 -12 -168 12 -59 21
-80 35 -150 104 -80 79 -164 208 -164 251 0 31 43 97 79 121 35 23 57 30 47
14 -3 -4 17 -9 44 -10 28 0 50 3 50 8 0 5 24 23 53 39 28 15 69 39 90 51 20
13 37 18 37 12 0 -6 -5 -11 -11 -11 -28 0 -103 -76 -125 -127 -32 -72 -30 -87
4 -32 34 53 117 127 152 136 14 3 30 9 35 13 17 13 150 33 188 28 19 -2 33 0
31 4 -3 4 -20 8 -37 8 -18 0 -43 4 -57 8 -21 6 -17 8 25 13 68 8 271 8 380 0z
m-490 -20 c-22 -4 -51 -10 -65 -14 -20 -5 -19 -4 5 8 17 8 46 14 65 13 l35 -1
-40 -6z m618 2 c-7 -2 -19 -2 -25 0 -7 3 -2 5 12 5 14 0 19 -2 13 -5z m177
-53 c44 -22 53 -35 18 -24 -23 7 -76 44 -64 44 4 0 25 -9 46 -20z m-1097 -57
c-7 -2 -21 -2 -30 0 -10 3 -4 5 12 5 17 0 24 -2 18 -5z"/>
<path d="M4320 7616 c0 -56 -3 -131 -6 -165 -6 -51 -4 -61 9 -61 25 0 37 57
37 181 0 125 -4 149 -26 149 -11 0 -14 -22 -14 -104z"/>
<path d="M3730 7526 c0 -54 13 -77 31 -59 11 11 -7 100 -22 109 -5 3 -9 -20
-9 -50z"/>
<path d="M3106 7561 c-6 -10 11 -75 40 -154 8 -20 14 -46 14 -56 0 -31 39
-113 50 -106 24 15 1 126 -54 264 -21 54 -38 71 -50 52z"/>
<path d="M5732 7216 c-40 -80 -72 -150 -72 -156 0 -6 10 -10 22 -8 17 2 35 28
75 103 65 124 80 172 61 191 -12 12 -25 -8 -86 -130z"/>
<path d="M6288 6983 c-88 -118 -148 -209 -148 -222 0 -21 25 -11 53 22 28 32
116 154 150 208 18 27 16 49 -3 49 -5 0 -29 -26 -52 -57z"/>
<path d="M1650 6715 c0 -10 82 -95 91 -95 20 0 7 51 -18 75 -24 22 -73 35 -73
20z"/>
<path d="M2822 4873 l3 -108 30 -5 30 -5 0 -350 0 -350 -32 -3 -33 -3 0 -105
0 -104 395 0 395 0 0 145 0 146 -102 -3 -103 -3 -3 -38 -3 -38 -122 3 -122 3
-3 353 -2 352 35 0 35 0 0 110 0 110 -200 0 -201 0 3 -107z m361 65 c2 -7 2
-39 -1 -71 -4 -54 -6 -58 -33 -64 l-29 -5 0 -389 0 -389 160 0 160 0 0 35 0
36 68 -3 67 -3 0 -105 0 -105 -355 0 -355 0 -3 73 -3 72 31 0 30 0 -2 393 c-3
340 -5 392 -18 393 -8 1 -21 2 -27 3 -9 1 -13 22 -13 71 l0 70 159 0 c118 0
160 -3 164 -12z"/>
<path d="M3858 4890 l-88 -90 0 -391 0 -391 83 -88 82 -88 240 -1 241 -1 82
85 82 85 0 116 0 115 -127 -3 -128 -3 -3 -65 c-3 -54 -7 -70 -29 -92 -25 -27
-31 -28 -118 -28 -87 0 -93 1 -118 28 l-27 28 0 301 c0 376 -10 353 149 353
135 0 141 -5 141 -108 l0 -72 130 0 130 0 0 113 0 112 -83 88 -83 87 -234 0
-234 0 -88 -90z m621 -26 l82 -86 -3 -81 -3 -82 -97 -3 -98 -3 0 58 c0 52 -4
62 -33 96 l-34 37 -109 3 -109 3 -37 -39 -38 -40 0 -320 0 -320 36 -33 35 -34
107 0 106 0 38 37 c33 32 38 43 38 84 l0 47 83 4 c121 6 117 9 117 -81 l0 -76
-73 -73 c-39 -40 -79 -77 -87 -82 -8 -5 -110 -10 -226 -10 l-211 0 -74 75
c-40 42 -77 81 -81 88 -4 7 -6 180 -5 385 l2 372 80 80 80 80 216 0 217 0 81
-86z"/>
<path d="M4833 4895 l-78 -86 -5 -392 -5 -392 50 -55 c28 -30 67 -71 87 -92
l37 -38 238 1 238 1 83 89 82 89 0 110 0 110 -130 0 -130 0 0 -67 c0 -59 -3
-70 -27 -95 -26 -27 -31 -28 -120 -28 -86 0 -96 2 -118 25 l-25 24 0 310 c0
377 -10 351 142 351 92 0 101 -2 123 -25 22 -21 25 -33 25 -90 l0 -65 130 0
130 0 0 113 0 112 -85 88 -85 87 -239 0 -240 0 -78 -85z m618 -27 l79 -83 -2
-85 -3 -85 -92 -3 -93 -3 0 53 c0 47 -4 58 -38 97 l-37 43 -107 2 -107 1 -41
-40 -40 -39 0 -316 0 -317 37 -36 36 -37 112 0 111 0 34 35 c27 28 34 44 38
89 4 54 5 54 36 52 17 -2 59 -4 94 -5 l62 -1 0 -76 0 -75 -67 -73 c-38 -40
-78 -78 -89 -84 -13 -6 -103 -11 -229 -12 l-207 -1 -79 80 -79 80 0 378 0 378
76 83 76 82 220 0 220 0 79 -82z"/>
<path d="M7662 4143 c-101 -3 -113 -6 -110 -21 3 -15 19 -17 168 -13 91 2 169
5 173 8 4 3 3 11 -4 19 -8 9 -29 13 -63 12 -28 -1 -102 -4 -164 -5z"/>
<path d="M5360 1694 c0 -81 4 -123 10 -119 6 4 10 57 10 126 0 73 -4 119 -10
119 -6 0 -10 -49 -10 -126z"/>
<path d="M5527 1823 c-4 -3 -7 -62 -7 -130 0 -98 3 -123 14 -123 20 0 26 32
26 137 0 110 -9 141 -33 116z"/>
<path d="M5690 1641 c0 -27 3 -56 6 -65 12 -31 24 -4 24 55 0 46 -3 59 -15 59
-11 0 -15 -12 -15 -49z"/>
</g>
</svg>
